<svg width="46" height="46" viewBox="0 0 46 46" fill="none" xmlns="http://www.w3.org/2000/svg">
<g clip-path="url(#clip0_229_12)">
<path d="M10.9792 22.293L20.1716 13.1006C20.3591 12.913 20.6135 12.8077 20.8787 12.8077C21.1439 12.8077 21.3982 12.913 21.5858 13.1006C21.7733 13.2881 21.8787 13.5425 21.8787 13.8077C21.8787 14.0729 21.7733 14.3273 21.5858 14.5148L14.1002 22.0004L34.3137 21.9995C34.5791 21.9995 34.8336 22.1049 35.0212 22.2926C35.2088 22.4802 35.3143 22.7347 35.3143 23.0001C35.3143 23.2654 35.2088 23.5199 35.0212 23.7076C34.8336 23.8952 34.5791 24.0006 34.3137 24.0006L14.1002 23.9998L21.5858 31.4854C21.7733 31.6729 21.8787 31.9273 21.8787 32.1925C21.8787 32.4577 21.7733 32.712 21.5858 32.8996C21.3982 33.0871 21.1439 33.1925 20.8787 33.1925C20.6135 33.1925 20.3591 33.0871 20.1716 32.8996L10.9792 23.7072C10.7916 23.5196 10.6863 23.2653 10.6863 23.0001C10.6863 22.7349 10.7916 22.4805 10.9792 22.293Z" fill="#F8F8F8"/>
</g>
<defs>
<clipPath id="clip0_229_12">
<rect width="32" height="32" fill="white" transform="translate(23 45.6274) rotate(-135)"/>
</clipPath>
</defs>
</svg>
