<svg width="50" height="50" viewBox="0 0 50 50" fill="none" xmlns="http://www.w3.org/2000/svg">
<path d="M49.9042 11.5458L32.3667 29.0833C30.4112 31.0339 27.762 32.1292 25 32.1292C22.238 32.1292 19.5888 31.0339 17.6333 29.0833L0.0958333 11.5458C0.0666667 11.875 0 12.1729 0 12.5V37.5C0.00330804 40.2617 1.10184 42.9093 3.05462 44.862C5.00741 46.8148 7.65501 47.9134 10.4167 47.9167H39.5833C42.345 47.9134 44.9926 46.8148 46.9454 44.862C48.8982 42.9093 49.9967 40.2617 50 37.5V12.5C50 12.1729 49.9333 11.875 49.9042 11.5458Z" fill="white"/>
<path d="M29.4208 26.1375L48.45 7.10623C47.5282 5.57773 46.228 4.31256 44.675 3.43275C43.1219 2.55294 41.3683 2.08819 39.5833 2.08331H10.4167C8.63171 2.08819 6.87813 2.55294 5.32506 3.43275C3.77199 4.31256 2.47183 5.57773 1.55 7.10623L20.5792 26.1375C21.7533 27.3069 23.3429 27.9635 25 27.9635C26.6571 27.9635 28.2467 27.3069 29.4208 26.1375Z" fill="white"/>
</svg>
