<svg width="50" height="50" viewBox="0 0 50 50" fill="none" xmlns="http://www.w3.org/2000/svg">
<path d="M42.6034 42.6053H35.1944V31.0023C35.1944 28.2353 35.1451 24.6748 31.3409 24.6748C27.4824 24.6748 26.891 27.6882 26.891 30.8027V42.6053H19.4846V18.7439H26.5978V22.0038H26.6964C28.1476 19.525 30.8431 18.0442 33.7136 18.1501C41.2236 18.1501 42.6058 23.0904 42.6058 29.5141L42.6034 42.6053ZM11.1245 15.4816C8.74932 15.4816 6.82501 13.5572 6.82501 11.1819C6.82501 8.80666 8.74932 6.88227 11.1245 6.88227C13.4997 6.88227 15.424 8.80666 15.424 11.1819C15.424 13.5572 13.4997 15.4816 11.1245 15.4816ZM14.8278 42.6053H7.41142V18.7439H14.8278V42.6053ZM46.2968 0.00280056H3.68846C1.67545 -0.0193754 0.024639 1.59454 0 3.60763V46.3924C0.024639 48.408 1.67545 50.0219 3.68846 49.9997H46.2968C48.3147 50.0244 49.9729 48.4105 50 46.3924V3.60516C49.9704 1.58715 48.3122 -0.0267675 46.2968 0.000336447" fill="#F8F8F8"/>
</svg>
