<svg width="46" height="46" viewBox="0 0 46 46" fill="none" xmlns="http://www.w3.org/2000/svg">
<g clip-path="url(#clip0_229_12)">
<path d="M35.0208 23.707L25.8284 32.8994C25.6409 33.087 25.3865 33.1923 25.1213 33.1923C24.8561 33.1923 24.6018 33.087 24.4142 32.8994C24.2267 32.7119 24.1213 32.4575 24.1213 32.1923C24.1213 31.9271 24.2267 31.6727 24.4142 31.4852L31.8998 23.9996L11.6863 24.0005C11.4209 24.0005 11.1664 23.8951 10.9788 23.7074C10.7912 23.5198 10.6857 23.2653 10.6857 22.9999C10.6857 22.7346 10.7912 22.4801 10.9788 22.2924C11.1664 22.1048 11.4209 21.9994 11.6863 21.9994L31.8998 22.0002L24.4142 14.5146C24.2267 14.3271 24.1213 14.0727 24.1213 13.8075C24.1213 13.5423 24.2267 13.288 24.4142 13.1004C24.6018 12.9129 24.8561 12.8075 25.1213 12.8075C25.3865 12.8075 25.6409 12.9129 25.8284 13.1004L35.0208 22.2928C35.2084 22.4804 35.3137 22.7347 35.3137 22.9999C35.3137 23.2651 35.2084 23.5195 35.0208 23.707Z" fill="#F8F8F8"/>
</g>
<defs>
<clipPath id="clip0_229_12">
<rect width="32" height="32" fill="white" transform="translate(23 0.372559) rotate(45)"/>
</clipPath>
</defs>
</svg>
