<svg width="18" height="19" viewBox="0 0 18 19" fill="none" xmlns="http://www.w3.org/2000/svg">
<path d="M17.9999 1.66669V14.6667C17.9999 14.9319 17.8946 15.1863 17.7071 15.3738C17.5195 15.5613 17.2652 15.6667 16.9999 15.6667C16.7347 15.6667 16.4804 15.5613 16.2928 15.3738C16.1053 15.1863 15.9999 14.9319 15.9999 14.6667V4.08044L1.70745 18.3742C1.51981 18.5618 1.26531 18.6672 0.999946 18.6672C0.734582 18.6672 0.480086 18.5618 0.292446 18.3742C0.104805 18.1865 -0.000610352 17.9321 -0.000610352 17.6667C-0.000610352 17.4013 0.104805 17.1468 0.292446 16.9592L14.5862 2.66669H3.99995C3.73473 2.66669 3.48038 2.56133 3.29284 2.37379C3.1053 2.18626 2.99995 1.9319 2.99995 1.66669C2.99995 1.40147 3.1053 1.14712 3.29284 0.95958C3.48038 0.772044 3.73473 0.666687 3.99995 0.666687H16.9999C17.2652 0.666687 17.5195 0.772044 17.7071 0.95958C17.8946 1.14712 17.9999 1.40147 17.9999 1.66669Z" fill="white"/>
</svg>
